<?xml version="1.0" standalone="no"?><!DOCTYPE svg PUBLIC "-//W3C//DTD SVG 1.1//EN" "http://www.w3.org/Graphics/SVG/1.1/DTD/svg11.dtd"><svg t="1699793379077" class="icon" viewBox="0 0 1024 1024" version="1.1" xmlns="http://www.w3.org/2000/svg" p-id="4164" xmlns:xlink="http://www.w3.org/1999/xlink" width="200" height="200"><path d="M889.472 42.688c27.008 0 49.216 21.76 49.216 48.32v841.984a49.024 49.024 0 0 1-49.216 48.32 49.024 49.024 0 0 1-49.152-48.32V91.008c0-26.496 22.208-48.32 49.152-48.32zM177.152 42.688c11.136 0 20.672 3.072 30.144 9.344l564.8 420.992A47.04 47.04 0 0 1 791.04 512c0 15.616-6.336 29.632-19.008 39.04l-564.8 420.928a49.664 49.664 0 0 1-50.752 4.672 49.28 49.28 0 0 1-26.944-43.648V91.008c0-18.688 11.072-34.304 26.944-43.648 4.736-1.6 12.672-4.672 20.608-4.672zM660.992 512L224.832 187.648v648.704L661.056 512z" fill="#172B4D" p-id="4165"></path></svg>